<!-- Generator: Adobe Illustrator 24.1.0, SVG Export Plug-In  -->
<svg version="1.1" 
    xmlns="http://www.w3.org/2000/svg" 
    xmlns:xlink="http://www.w3.org/1999/xlink" x="0px" y="0px" width="109.9px" height="172.1px" viewBox="0 0 109.9 172.1" enable-background="new 0 0 109.9 172.1" xml:space="preserve">
    <style>
        .main-color: {
            fill: '#1d2d3d'
        }
    </style>
    <defs>
    </defs>
    <g>
        <polygon class="main-color" points="109.9,11 109.9,0 0,0 0,11 98.9,11 98.9,29.3 0,29.3 0,40.3 109.9,40.3 109.9,29.3 109.9,29.3 
		109.9,11 	"/>
        <polygon class="main-color" points="0,51.3 0,54.9 0,73.2 0,79.8 0,84.2 109.9,84.2 109.9,73.2 11,73.2 11,54.9 109.9,54.9 109.9,43.9 
		0,43.9 	"/>
        <polygon class="main-color" points="0,95.2 0,98.9 0,117.2 0,123.7 0,128.2 95.2,128.2 95.2,117.2 11,117.2 11,98.9 109.9,98.9 
		109.9,87.9 0,87.9 	"/>
        <polygon class="main-color" points="0,142.8 42.1,142.8 42.1,172.1 53.1,172.1 53.1,142.8 56.8,142.8 56.8,172.1 67.8,172.1 
		67.8,142.8 109.9,142.8 109.9,131.8 0,131.8 	"/>
        <polygon class="main-color" points="109.9,128.1 109.9,113.5 109.9,110.5 109.9,102.5 14.7,102.5 14.7,113.5 98.9,113.5 98.9,128.1 	
		"/>
        <rect x="14.7" y="58.6" class="main-color" width="80.6" height="11"/>
    </g>
</svg>
